<?xml version="1.0" encoding="utf-8"?><svg xmlns="http://www.w3.org/2000/svg" xmlns:xlink="http://www.w3.org/1999/xlink"><symbol viewBox="0 0 284.93 166.17" id="arrow" xmlns="http://www.w3.org/2000/svg"><path d="M282.082 76.511l-14.274-14.273c-1.902-1.906-4.093-2.856-6.57-2.856-2.471 0-4.661.95-6.563 2.856L142.466 174.441 30.262 62.241c-1.903-1.906-4.093-2.856-6.567-2.856-2.475 0-4.665.95-6.567 2.856L2.856 76.515C.95 78.417 0 80.607 0 83.082c0 2.473.953 4.663 2.856 6.565l133.043 133.046c1.902 1.903 4.093 2.854 6.567 2.854s4.661-.951 6.562-2.854L282.082 89.647c1.902-1.903 2.847-4.093 2.847-6.565 0-2.475-.945-4.665-2.847-6.571z"/></symbol><symbol viewBox="0 0 20.45 20.45" id="close" xmlns="http://www.w3.org/2000/svg"><path d="M13.556 10l5.777-5.778c.89-.889.89-2.222 0-3L18.89.778c-.889-.89-2.222-.89-3 0L10 6.444 4.222.667c-.889-.89-2.222-.89-3.11 0l-.445.444c-.89.889-.89 2.222 0 3L6.444 10 .667 15.778c-.89.889-.89 2.222 0 3l.444.555c.889.89 2.222.89 3 0L10 13.556l5.778 5.777c.889.89 2.222.89 3 0l.444-.444c.89-.889.89-2.222 0-3L13.556 10z"/></symbol><symbol viewBox="0 0 67 21" id="dekorSeparator" xmlns="http://www.w3.org/2000/svg"><path fill-rule="evenodd" clip-rule="evenodd" d="M33.5-.001c5.799 0 10.5 4.701 10.5 10.5C44 16.3 39.299 21 33.5 21 27.7 21 23 16.3 23 10.5S27.7 0 33.5 0zm27 4a6.5 6.5 0 110 13 6.5 6.5 0 010-13zM13 10.5a6.5 6.5 0 10-13 0 6.5 6.5 0 0013 0z"/></symbol><symbol viewBox="0 0 34.69 24.05" id="delivery" xmlns="http://www.w3.org/2000/svg"><path d="M26.355 15.979a4.378 4.378 0 00-4.373 4.373 4.378 4.378 0 004.373 4.372 4.378 4.378 0 004.373-4.372 4.378 4.378 0 00-4.373-4.373zm0 6.559a2.189 2.189 0 01-2.186-2.186c0-1.206.98-2.187 2.186-2.187s2.187.98 2.187 2.187c0 1.205-.98 2.186-2.187 2.186zm-14.941-6.559a4.378 4.378 0 00-4.373 4.373 4.378 4.378 0 004.373 4.372 4.378 4.378 0 004.373-4.372 4.378 4.378 0 00-4.373-4.373zm0 6.559a2.189 2.189 0 01-2.186-2.186c0-1.206.98-2.187 2.186-2.187s2.187.98 2.187 2.187c0 1.205-.98 2.186-2.187 2.186zM29.3 3.462a1.094 1.094 0 00-.977-.602h-5.758v2.186h5.084l2.977 5.921 1.954-.982-3.28-6.523z"/><path d="M23.076 19.295h-8.273v2.186h8.273v-2.186zm-14.942 0h-3.79a1.093 1.093 0 100 2.186h3.79a1.093 1.093 0 100-2.186zm26.483-6.684l-2.15-2.77a1.092 1.092 0 00-.864-.422h-7.944V1.766c0-.604-.49-1.093-1.094-1.093H4.345a1.093 1.093 0 100 2.186h17.127v7.653c0 .604.49 1.093 1.093 1.093h8.502l1.593 2.051v5.639h-3.025a1.093 1.093 0 100 2.186h4.118c.604 0 1.093-.49 1.093-1.093v-7.106c0-.243-.08-.479-.23-.67zM8.062 13.756h-5.03a1.093 1.093 0 100 2.186h5.03a1.093 1.093 0 100-2.186zm2.514-4.301H1.247a1.093 1.093 0 100 2.187h9.33a1.093 1.093 0 100-2.187z"/><path d="M12.362 5.155h-9.33a1.093 1.093 0 100 2.187h9.33a1.093 1.093 0 100-2.187z"/></symbol><symbol viewBox="0 0 34.91 34.94" id="design" xmlns="http://www.w3.org/2000/svg"><path d="M34.548.452a1.015 1.015 0 00-.81-.294c-.126.012-3.117.296-7.22 1.673C13.166 5.943 4.33 18.89.221 28.256c-.259.618.264 1.446 1.046 1.378l4.538-.442-.441 4.538c-.049.653.585 1.34 1.378 1.046 16.305-7.429 26.25-18.8 28.1-33.514.027-.3-.08-.597-.294-.81zM21.41 22.788a60.09 60.09 0 01-5.219 4.236V9.721a32.623 32.623 0 015.22-3.476v16.543zM11.494 30.1a50.861 50.861 0 01-3.939 2.097l.393-4.036c.058-.525-.428-1.19-1.11-1.11l-4.035.392c1.363-2.891 5.034-9.624 11.356-15.89v16.88a57.998 57.998 0 01-2.665 1.667zm19.73-22.208c-1.194 3.537-3.512 8.643-7.781 12.953V5.232c2.78-1.343 7.03-2.547 9.19-2.866a37.061 37.061 0 01-1.41 5.525z"/></symbol><symbol viewBox="0 0 24 14.02" id="dropdownLength" xmlns="http://www.w3.org/2000/svg"><path d="M7.006 4.095L7.007 0 0 7.01l7.007 7.008V9.924l9.985.002v4.093L24 7.01 16.992 0v4.095H7.006z"/></symbol><symbol viewBox="0 0 18 24" id="dropdownLifeTime" xmlns="http://www.w3.org/2000/svg"><path d="M17 22h-1v-3.273a5.755 5.755 0 00-1.903-4.274l-1.693-1.523a1.238 1.238 0 01-.414-.93c0-.359.147-.689.414-.929l1.693-1.523A5.76 5.76 0 0016 5.273V2h1a1 1 0 100-2H1a1 1 0 100 2h1v3.273c0 1.628.693 3.186 1.903 4.274l1.693 1.523c.267.241.414.571.414.93 0 .359-.147.689-.414.929l-1.693 1.523A5.76 5.76 0 002 18.727V22H1a1 1 0 100 2h16a1 1 0 100-2zM5 18.829c0-.735.286-1.425.806-1.945L8.47 14.22a.75.75 0 011.061 0l2.664 2.664c.52.52.806 1.21.806 1.945V22H5v-3.171z"/></symbol><symbol viewBox="0 0 24.11 24.02" id="dropdownThickness" xmlns="http://www.w3.org/2000/svg"><path d="M22.594 5.484H1.454a1.406 1.406 0 000 2.813h21.14a1.406 1.406 0 000-2.813zM23.063 0H.938a.937.937 0 100 1.875h22.125a.937.937 0 100-1.875zm-1.407 19.313H2.391a2.344 2.344 0 100 4.687h19.265a2.344 2.344 0 100-4.688zm.469-7.407H1.922a1.875 1.875 0 000 3.75h20.203a1.875 1.875 0 100-3.75z"/></symbol><symbol viewBox="0 0 23.19 24" id="dropdownWeight" xmlns="http://www.w3.org/2000/svg"><path d="M22.983 21.137L20.888 8.621a2.447 2.447 0 00-2.416-2.043h-3.148c.37-.643.58-1.388.58-2.181A4.401 4.401 0 0011.509 0a4.402 4.402 0 00-4.397 4.397c0 .793.211 1.538.58 2.181H4.545a2.447 2.447 0 00-2.416 2.044L.034 21.14A2.454 2.454 0 002.45 24h18.119a2.455 2.455 0 002.414-2.863zM11.509 2.561c1.011 0 1.835.824 1.835 1.836a1.837 1.837 0 01-1.835 1.835 1.838 1.838 0 01-1.836-1.835c0-1.013.823-1.836 1.836-1.836z"/></symbol><symbol viewBox="0 0 16.97 16.97" id="dropdownWidth" xmlns="http://www.w3.org/2000/svg"><path d="M3.409 10.48L.513 7.583l.002 9.912h9.91L7.53 14.602l7.062-7.06 2.895 2.895V.524H7.573l2.895 2.895-7.06 7.06z"/></symbol><symbol viewBox="0 0 20 20" id="fb" xmlns="http://www.w3.org/2000/svg"><path d="M20 18.91c0 .6-.49 1.09-1.09 1.09h-5.123v-7.738h2.616l.382-2.998h-2.998V7.357c0-.872.218-1.471 1.472-1.471h1.58V3.16c-.272-.055-1.199-.11-2.343-.11-2.289 0-3.87 1.418-3.87 3.979v2.234H8.012v2.998h2.616V20H1.09C.49 20 0 19.51 0 18.91V1.09C0 .49.49 0 1.09 0h17.82c.6 0 1.09.49 1.09 1.09v17.82z"/></symbol><symbol viewBox="0 0 20 20" id="inst" xmlns="http://www.w3.org/2000/svg"><path d="M17.602 0H2.398C1.09 0 0 1.035 0 2.343v15.314C0 18.965 1.09 20 2.398 20h15.204C18.91 20 20 18.965 20 17.657V2.343C20 1.035 18.91 0 17.602 0zm-3.215 3.106c0-.327.272-.6.6-.6h1.907c.327 0 .6.273.6.6V4.96c0 .327-.273.6-.6.6H15.04a.605.605 0 01-.6-.6l-.054-1.853zm-4.36 3.052c2.126 0 3.87 1.69 3.87 3.815s-1.744 3.814-3.87 3.814c-2.125 0-3.869-1.689-3.869-3.814 0-2.071 1.744-3.815 3.87-3.815zm8.066 11.335c0 .327-.273.6-.6.6H2.507a.605.605 0 01-.6-.6V8.12H4.36c-.327.49-.436 1.362-.436 1.907 0 3.325 2.725 6.05 6.103 6.05 3.379 0 6.104-2.726 6.104-6.05 0-.545-.055-1.417-.49-1.907h2.506l-.054 9.373z"/></symbol><symbol viewBox="0 0 55.56 39.26" id="logo" xmlns="http://www.w3.org/2000/svg"><path d="M12.575 18.552c-1.008 0-1.896-.176-2.664-.528-.768-.352-1.36-.84-1.776-1.464-.416-.64-.624-1.376-.624-2.208 0-.704.144-1.344.432-1.92a3.703 3.703 0 011.2-1.368 3 3 0 011.68-.504c.56 0 1.032.144 1.416.432.384.272.624.656.72 1.152-.832 0-1.496.224-1.992.672-.496.432-.744 1.024-.744 1.776 0 .688.208 1.24.624 1.656.416.416.968.624 1.656.624.848 0 1.544-.28 2.088-.84.56-.576.84-1.296.84-2.16 0-.752-.208-1.464-.624-2.136-.416-.672-1.04-1.488-1.872-2.448-.864-.992-1.52-1.84-1.968-2.544a4.488 4.488 0 01-.648-2.352c0-.832.232-1.576.696-2.232.464-.672 1.104-1.2 1.92-1.584C13.751.192 14.671 0 15.695 0c1.296 0 2.328.304 3.096.912.784.608 1.176 1.424 1.176 2.448 0 .672-.168 1.216-.504 1.632a1.615 1.615 0 01-1.32.624c-.608 0-1.096-.248-1.464-.744.304-.224.544-.52.72-.888.176-.368.264-.752.264-1.152 0-.512-.152-.92-.456-1.224-.304-.304-.72-.456-1.248-.456-.64 0-1.168.232-1.584.696-.4.448-.6 1.024-.6 1.728 0 .64.184 1.24.552 1.8.368.544.944 1.248 1.728 2.112.64.688 1.152 1.28 1.536 1.776.4.496.736 1.072 1.008 1.728.288.64.432 1.336.432 2.088a4.78 4.78 0 01-.864 2.784c-.56.832-1.336 1.488-2.328 1.968-.976.48-2.064.72-3.264.72zm10.184-.288c-.768 0-1.392-.24-1.872-.72-.464-.48-.696-1.2-.696-2.16 0-.4.064-.92.192-1.56l1.632-7.704h3.456l-1.728 8.16c-.048.24-.072.464-.072.672 0 .656.24.984.72.984.448 0 .832-.184 1.152-.552.32-.384.576-.904.768-1.56l1.632-7.704h3.456l-1.728 8.16a2.97 2.97 0 00-.096.768c0 .32.072.552.216.696.16.128.416.192.768.192.448 0 .832-.192 1.152-.576.336-.384.6-.896.792-1.536h1.008c-.592 1.728-1.328 2.904-2.208 3.528-.864.608-1.736.912-2.616.912-.688 0-1.24-.192-1.656-.576-.4-.384-.64-.952-.72-1.704-.544.88-1.12 1.48-1.728 1.8-.592.32-1.2.48-1.824.48zM34.132 6.12h3.456l-.312 1.488c.544-.48 1.032-.848 1.464-1.104a2.855 2.855 0 011.44-.384c.512 0 .912.176 1.2.528.304.352.456.776.456 1.272 0 .464-.152.872-.456 1.224-.304.352-.728.528-1.272.528-.352 0-.592-.08-.72-.24-.112-.176-.2-.424-.264-.744a2.203 2.203 0 00-.144-.456c-.048-.096-.136-.144-.264-.144-.336 0-.624.072-.864.216-.224.128-.52.36-.888.696l-1.92 9.12h-3.456l2.544-12zm5.231 18a2.874 2.874 0 01-1.968-.744 2.297 2.297 0 01-.864-1.848c0-.688.176-1.256.528-1.704a3.84 3.84 0 011.368-1.08c.56-.256 1.304-.528 2.232-.816l2.904-13.704c.32-1.536.88-2.6 1.68-3.192.816-.592 1.712-.888 2.688-.888.752 0 1.408.248 1.968.744.576.48.864 1.096.864 1.848 0 .368-.024.696-.072.984h-1.128c.032-.352.048-.568.048-.648 0-.256-.088-.456-.264-.6a.99.99 0 00-.648-.216c-.336 0-.664.152-.984.456-.32.288-.552.792-.696 1.512l-.408 1.896h1.752l-.168.96H46.42l-2.76 12.96c-.32 1.552-.872 2.616-1.656 3.192a4.272 4.272 0 01-2.64.888zm-.552-2.136c.64 0 1.096-.624 1.368-1.872l.312-1.392c-.848.288-1.496.616-1.944.984-.464.384-.696.88-.696 1.488 0 .192.096.368.288.528a.963.963 0 00.672.264zM3.36 39.264c-1.088 0-1.92-.264-2.496-.792C.288 37.928 0 37.168 0 36.192c0-.48.056-.936.168-1.368L2.736 22.8l3.552-.48-1.152 5.4c.448-.272.816-.448 1.104-.528.288-.096.576-.144.864-.144 1.888 0 2.832 1.368 2.832 4.104 0 1.104-.216 2.288-.648 3.552a7.44 7.44 0 01-2.112 3.216c-.976.896-2.248 1.344-3.816 1.344zm1.344-2.328c.496 0 .96-.304 1.392-.912.432-.624.776-1.392 1.032-2.304.256-.928.384-1.816.384-2.664 0-.64-.112-1.184-.336-1.632-.224-.448-.536-.672-.936-.672-.24 0-.512.04-.816.12-.288.064-.488.168-.6.312l-1.32 6.096a2.275 2.275 0 00-.072.552c0 .736.424 1.104 1.272 1.104zm9.632 2.28c-1.184 0-2.12-.304-2.808-.912-.688-.608-1.032-1.568-1.032-2.88 0-1.088.224-2.296.672-3.624a8.473 8.473 0 012.16-3.432c.992-.976 2.24-1.464 3.744-1.464 2.048 0 3.072 1.28 3.072 3.84v.024a.966.966 0 00.264.024c.528 0 1.136-.136 1.824-.408a9.553 9.553 0 001.872-1.032l.216.648c-.464.496-1.072.92-1.824 1.272a9.507 9.507 0 01-2.424.72c-.128 1.456-.456 2.728-.984 3.816-.528 1.088-1.208 1.928-2.04 2.52-.832.592-1.736.888-2.712.888zm.96-2.16c.384 0 .768-.216 1.152-.648.384-.448.72-1.048 1.008-1.8.288-.768.496-1.616.624-2.544-.432-.096-.648-.432-.648-1.008 0-.656.248-1.088.744-1.296-.032-.528-.112-.888-.24-1.08-.128-.208-.352-.312-.672-.312-.528 0-1.04.384-1.536 1.152-.496.768-.896 1.688-1.2 2.76-.304 1.072-.456 2.016-.456 2.832 0 .768.088 1.288.264 1.56.176.256.496.384.96.384zm8.963 2.208c-.912 0-1.672-.312-2.28-.936-.608-.624-.912-1.6-.912-2.928 0-1.184.232-2.424.696-3.72.48-1.312 1.184-2.416 2.112-3.312.944-.912 2.064-1.368 3.36-1.368.656 0 1.144.112 1.464.336.32.224.48.52.48.888v.168l.264-1.272h3.456l-1.728 8.16a2.97 2.97 0 00-.096.768c0 .688.328 1.032.984 1.032.448 0 .832-.208 1.152-.624.336-.416.6-.96.792-1.632h1.008c-.592 1.728-1.328 2.904-2.208 3.528-.864.608-1.736.912-2.616.912-.672 0-1.216-.184-1.632-.552-.4-.384-.64-.936-.72-1.656a6.8 6.8 0 01-1.56 1.608c-.56.4-1.232.6-2.016.6zm1.56-2.328c.4 0 .792-.184 1.176-.552.4-.384.672-.904.816-1.56l1.152-5.424c0-.208-.08-.408-.24-.6-.16-.208-.408-.312-.744-.312-.64 0-1.216.376-1.728 1.128-.512.736-.912 1.632-1.2 2.688-.288 1.04-.432 1.96-.432 2.76 0 .8.112 1.312.336 1.536.24.224.528.336.864.336zm9.825-9.816H39.1l-.312 1.488c.544-.48 1.032-.848 1.464-1.104a2.855 2.855 0 011.44-.384c.512 0 .912.176 1.2.528.304.352.456.776.456 1.272 0 .464-.152.872-.456 1.224-.304.352-.728.528-1.272.528-.352 0-.592-.08-.72-.24-.112-.176-.2-.424-.264-.744a2.203 2.203 0 00-.144-.456c-.048-.096-.136-.144-.264-.144-.336 0-.624.072-.864.216-.224.128-.52.36-.888.696l-1.92 9.12H33.1l2.544-12zm10.271 12.144c-.912 0-1.672-.312-2.28-.936-.608-.624-.912-1.6-.912-2.928 0-1.184.232-2.424.696-3.72.48-1.312 1.184-2.416 2.112-3.312.944-.912 2.064-1.368 3.36-1.368.656 0 1.144.112 1.464.336.32.224.48.52.48.888v.096l1.176-5.52 3.552-.48-2.76 12.96c-.064.24-.096.472-.096.696 0 .64.328.96.984.96.288 0 .544-.048.768-.144-.064.8-.352 1.416-.864 1.848-.496.416-1.088.624-1.776.624-.64 0-1.184-.16-1.632-.48-.432-.336-.72-.84-.864-1.512-.96 1.328-2.096 1.992-3.408 1.992zm1.56-2.328c.352 0 .704-.152 1.056-.456.368-.304.64-.728.816-1.272l.096-.384 1.176-5.496c-.144-.56-.472-.84-.984-.84-.64 0-1.216.376-1.728 1.128-.512.736-.912 1.632-1.2 2.688-.288 1.04-.432 1.96-.432 2.76 0 .8.112 1.312.336 1.536.24.224.528.336.864.336z"/></symbol><symbol viewBox="0 0 58 73" id="marker" xmlns="http://www.w3.org/2000/svg"><path d="M29 0C18.913 0 0 7.684 0 29.456S29 73 29 73s29-21.772 29-43.544S39.087 0 29 0z"/><path d="M17.375 28.764c-.77 0-1.447-.136-2.034-.406-.586-.27-1.037-.646-1.355-1.125-.317-.492-.476-1.058-.476-1.697 0-.54.11-1.033.33-1.475a2.84 2.84 0 01.915-1.051 2.274 2.274 0 011.283-.388c.427 0 .787.111 1.08.332.293.21.476.504.55.886-.635 0-1.142.172-1.52.516-.38.332-.568.787-.568 1.365 0 .528.158.953.476 1.272.317.32.739.48 1.264.48.647 0 1.178-.215 1.593-.646.427-.443.641-.996.641-1.66 0-.578-.159-1.125-.476-1.641-.317-.516-.794-1.143-1.429-1.881-.659-.762-1.16-1.414-1.502-1.955a3.467 3.467 0 01-.494-1.807c0-.64.177-1.211.531-1.715.354-.517.843-.922 1.465-1.218.623-.295 1.325-.442 2.107-.442.989 0 1.776.233 2.362.7.599.468.898 1.095.898 1.882 0 .516-.128.934-.385 1.254a1.23 1.23 0 01-1.007.48 1.32 1.32 0 01-1.117-.572 1.8 1.8 0 00.55-.683 2.04 2.04 0 00.2-.885c0-.393-.116-.707-.348-.94-.232-.234-.549-.351-.952-.351-.488 0-.891.178-1.209.535-.305.344-.458.787-.458 1.328 0 .491.14.953.422 1.383.28.418.72.959 1.318 1.623.489.528.88.983 1.173 1.364.305.382.561.824.769 1.328.22.492.33 1.027.33 1.605 0 .787-.22 1.5-.66 2.139-.427.64-1.02 1.143-1.776 1.512-.745.37-1.576.554-2.491.554zm7.771-.222c-.586 0-1.062-.184-1.428-.553-.355-.369-.532-.922-.532-1.66 0-.307.05-.707.147-1.198l1.245-5.92h2.638l-1.319 6.27a2.661 2.661 0 00-.055.516c0 .504.183.756.55.756.342 0 .635-.141.879-.424.244-.295.44-.694.586-1.198l1.245-5.92h2.638l-1.319 6.27a2.299 2.299 0 00-.073.59c0 .246.055.424.165.535.122.098.317.147.586.147.342 0 .635-.147.879-.442.256-.295.458-.689.604-1.18h.77c-.452 1.327-1.014 2.231-1.685 2.71-.66.468-1.325.701-1.997.701-.525 0-.946-.147-1.264-.442-.305-.295-.488-.732-.55-1.31-.414.677-.854 1.137-1.318 1.383a2.878 2.878 0 01-1.392.37zm8.68-9.332h2.637l-.238 1.144a7.63 7.63 0 011.117-.848 2.168 2.168 0 011.1-.296c.39 0 .695.136.915.406.232.27.348.597.348.978a1.4 1.4 0 01-.348.94c-.232.27-.556.406-.97.406-.27 0-.452-.062-.55-.184a1.71 1.71 0 01-.202-.572 1.692 1.692 0 00-.11-.35c-.036-.074-.103-.111-.2-.111-.257 0-.477.055-.66.166-.171.098-.397.276-.678.535l-1.465 7.008h-2.638l1.942-9.221zm3.992 13.832c-.574 0-1.074-.19-1.502-.572a1.77 1.77 0 01-.66-1.42c0-.528.135-.965.404-1.309.268-.344.616-.62 1.044-.83.427-.197.995-.406 1.703-.627l2.216-10.53c.245-1.18.672-1.998 1.282-2.453a3.401 3.401 0 012.052-.683c.574 0 1.074.191 1.502.572.44.369.66.842.66 1.42 0 .283-.02.535-.056.756h-.86a8.38 8.38 0 00.036-.498.564.564 0 00-.202-.46.752.752 0 00-.494-.167c-.256 0-.507.117-.751.35-.244.222-.421.61-.531 1.163l-.312 1.456h1.338l-.129.738h-1.355l-2.106 9.959c-.245 1.193-.666 2.01-1.264 2.453a3.246 3.246 0 01-2.015.682zm-.421-1.641c.488 0 .836-.48 1.044-1.439l.238-1.07c-.647.222-1.142.474-1.484.757a1.42 1.42 0 00-.53 1.143c0 .148.072.283.219.406a.732.732 0 00.513.203zM10.342 44.679c-.83 0-1.465-.203-1.905-.608-.44-.418-.66-1.002-.66-1.752 0-.37.043-.72.129-1.052l1.96-9.24 2.71-.368-.879 4.15c.342-.21.623-.345.843-.406.22-.074.44-.11.66-.11 1.44 0 2.16 1.05 2.16 3.153 0 .848-.165 1.758-.494 2.73a5.72 5.72 0 01-1.612 2.47c-.745.689-1.715 1.033-2.912 1.033zm1.025-1.789c.38 0 .733-.233 1.063-.7.33-.48.592-1.07.787-1.771a7.744 7.744 0 00.293-2.047c0-.492-.085-.91-.256-1.254-.17-.344-.409-.517-.714-.517-.183 0-.391.031-.623.093-.22.049-.372.129-.458.24l-1.007 4.684a1.76 1.76 0 00-.055.424c0 .565.323.848.97.848zm7.351 1.752c-.903 0-1.618-.233-2.143-.7-.525-.468-.787-1.206-.787-2.214 0-.836.17-1.764.513-2.784.341-1.02.891-1.9 1.648-2.638.757-.75 1.71-1.125 2.857-1.125 1.563 0 2.345.984 2.345 2.951v.019a.733.733 0 00.201.018c.403 0 .867-.104 1.392-.313a7.276 7.276 0 001.429-.794l.165.498c-.355.382-.819.707-1.392.978a7.214 7.214 0 01-1.85.553c-.098 1.119-.348 2.096-.751 2.932-.403.836-.922 1.482-1.557 1.937a3.48 3.48 0 01-2.07.682zm.733-1.66c.293 0 .586-.166.88-.498.292-.344.549-.805.768-1.383.22-.59.379-1.241.477-1.954-.33-.074-.495-.332-.495-.775 0-.504.19-.836.568-.996-.025-.406-.086-.682-.183-.83-.098-.16-.269-.24-.513-.24-.403 0-.794.296-1.172.886-.379.59-.684 1.297-.916 2.12-.232.824-.348 1.55-.348 2.177 0 .59.067.99.201 1.198.135.197.379.295.733.295zm6.84 1.697c-.696 0-1.276-.24-1.74-.72-.464-.479-.696-1.229-.696-2.25 0-.909.177-1.862.531-2.858.367-1.008.904-1.856 1.612-2.545.72-.7 1.575-1.05 2.564-1.05.5 0 .873.085 1.117.257.245.172.367.4.367.683v.129l.201-.978h2.638l-1.319 6.27a2.295 2.295 0 00-.073.59c0 .53.25.794.75.794.343 0 .636-.16.88-.48.256-.32.458-.737.604-1.254h.77c-.452 1.328-1.014 2.232-1.686 2.711-.659.468-1.324.701-1.996.701-.513 0-.928-.141-1.245-.424-.306-.295-.489-.72-.55-1.273a5.207 5.207 0 01-1.19 1.236c-.428.307-.94.461-1.539.461zm1.19-1.789c.306 0 .605-.141.898-.424.305-.295.513-.695.623-1.199l.879-4.168a.716.716 0 00-.183-.46c-.122-.16-.312-.24-.568-.24-.488 0-.928.288-1.319.866-.39.566-.696 1.254-.916 2.066-.22.799-.33 1.506-.33 2.12 0 .615.086 1.009.257 1.181a.928.928 0 00.66.258zm7.498-7.543h2.638l-.238 1.144a7.635 7.635 0 011.117-.849 2.168 2.168 0 011.099-.295c.39 0 .696.136.916.406.232.27.348.596.348.977 0 .357-.116.67-.348.941-.232.27-.556.406-.971.406-.269 0-.452-.062-.55-.185a1.707 1.707 0 01-.2-.571 1.703 1.703 0 00-.11-.35c-.037-.074-.105-.111-.202-.111-.257 0-.477.055-.66.166-.17.098-.396.276-.677.534l-1.466 7.008h-2.637l1.941-9.22zm7.84 9.332c-.697 0-1.277-.24-1.74-.72-.465-.479-.697-1.229-.697-2.25 0-.909.177-1.862.531-2.858.367-1.008.904-1.856 1.612-2.545.72-.7 1.575-1.05 2.564-1.05.501 0 .873.085 1.118.257.244.172.366.4.366.683v.074l.897-4.242 2.711-.369-2.106 9.959a2.088 2.088 0 00-.073.535c0 .491.25.737.75.737.22 0 .416-.037.587-.11-.05.614-.269 1.088-.66 1.42-.378.32-.83.48-1.355.48-.488 0-.904-.124-1.246-.37-.33-.258-.55-.645-.659-1.162-.733 1.02-1.6 1.531-2.6 1.531zm1.19-1.789c.268 0 .537-.117.806-.35.28-.234.488-.56.622-.978l.074-.295.897-4.223c-.11-.43-.36-.645-.75-.645-.49 0-.929.288-1.32.866-.39.566-.696 1.254-.915 2.066-.22.799-.33 1.506-.33 2.12 0 .615.085 1.009.256 1.181a.929.929 0 00.66.258z"/></symbol><symbol viewBox="0 0 34.69 34.74" id="materials" xmlns="http://www.w3.org/2000/svg"><path d="M33.83 12.418h-7.274l.003-.019a8.25 8.25 0 002.014-2.575 1.016 1.016 0 00-.91-1.471h-1.568a8.992 8.992 0 00-1.484-2.656 8.246 8.246 0 00-.397-3.241 1.016 1.016 0 00-1.683-.397L21.419 3.17a8.983 8.983 0 00-2.92-.827C17.732 1.44 16.848.724 15.922.261a1.017 1.017 0 00-1.471.91v1.636a8.992 8.992 0 00-2.655 1.484 8.246 8.246 0 00-3.242.397 1.016 1.016 0 00-.397 1.683L9.27 7.482a8.983 8.983 0 00-.828 2.923 8.283 8.283 0 00-1.705 2.013H1.17c-.561 0-1.016.455-1.016 1.017V17.5c0 .561.455 1.016 1.016 1.016h1.084V33.83c0 .561.455 1.016 1.017 1.016h4.065c.562 0 1.017-.455 1.017-1.016v-3.445l9.147-3.66 9.147 3.66v3.445c0 .561.455 1.016 1.017 1.016h4.065c.562 0 1.017-.455 1.017-1.016V18.516h1.084c.561 0 1.016-.455 1.016-1.016v-4.066c0-.56-.455-1.016-1.016-1.016zm-23.79-.695c.232-.18.375-.45.392-.743.068-1.135.392-2.2.962-3.168.236-.4.171-.908-.156-1.235l-.274-.274c.34-.01.684.006 1.031.05.291.037.584-.053.803-.248a7.01 7.01 0 012.924-1.563c.448-.116.762-.52.762-.984v-.402c.241.238.474.5.695.786.18.232.45.374.743.392a7 7 0 013.168.962c.4.236.907.171 1.235-.157l.274-.273c.01.34-.006.684-.05 1.031-.037.29.053.583.248.803a7.011 7.011 0 011.563 2.924c.116.448.52.761.984.761h.383a6.63 6.63 0 01-.767.696c-.232.18-.375.45-.392.743a7.858 7.858 0 01-.06.594h-4.134A3.053 3.053 0 0017.5 8.352a3.053 3.053 0 00-2.874 4.066H9.273c.234-.248.49-.48.767-.695zm8.476-.321a1.018 1.018 0 01-2.032 0 1.018 1.018 0 012.032 0zM6.32 32.813H4.287V18.516H6.32v14.297zm2.033-4.618v-5.128l6.41 2.564-6.41 2.564zm18.294 0l-6.41-2.564 6.41-2.564v5.128zm0-7.318l-9.147 3.66-9.147-3.66v-2.36h18.294v2.36zm4.066 11.936H28.68V18.516h2.033v14.297zm2.1-16.33H2.187v-2.032h30.626v2.033z"/></symbol><symbol viewBox="0 0 38.22 38.22" id="params" xmlns="http://www.w3.org/2000/svg"><path d="M18.213.326l-6.67 6.67a1.113 1.113 0 000 1.574l3.15 3.149c.264.263.626.367.968.311v3.63h-3.63a1.113 1.113 0 00-.312-.967l-3.149-3.15a1.113 1.113 0 00-1.574 0l-6.67 6.67a1.113 1.113 0 000 1.574l6.67 6.67c.434.434 1.14.434 1.574 0l3.15-3.15c.257-.257.368-.62.31-.967h3.63v3.63a1.111 1.111 0 00-.967.311l-3.15 3.15a1.113 1.113 0 000 1.574l6.67 6.669c.435.435 1.14.435 1.575 0l6.669-6.67a1.114 1.114 0 000-1.574l-3.15-3.149a1.11 1.11 0 00-.967-.311v-3.63h3.63c-.057.348.054.71.312.967l3.149 3.15c.434.434 1.14.434 1.574 0l6.67-6.67a1.113 1.113 0 000-1.574l-6.67-6.67a1.114 1.114 0 00-1.574 0l-3.15 3.15c-.257.258-.368.62-.31.967h-3.63v-3.63c.34.056.703-.047.967-.31l3.149-3.15a1.113 1.113 0 000-1.574l-6.67-6.67a1.113 1.113 0 00-1.574 0zm4.308 9.031l-.507-.506c-.698-.699-1.9-.204-1.9.787v7.135c0 .615.498 1.114 1.113 1.114h7.135c.989 0 1.488-1.2.788-1.9l-.507-.507 1.575-1.575L35.313 19l-5.095 5.095-1.575-1.575.507-.506c.698-.699.203-1.9-.788-1.9h-7.135c-.615 0-1.113.498-1.113 1.113v7.135c0 .992 1.202 1.485 1.9.787l.506-.506 1.575 1.575L19 35.312l-5.094-5.095 1.574-1.574.507.506c.698.699 1.9.204 1.9-.787v-7.135c0-.615-.498-1.114-1.113-1.114H9.638c-.988 0-1.487 1.2-.787 1.9l.507.507-1.575 1.575L2.688 19l5.095-5.095 1.575 1.575-.507.506c-.699.7-.203 1.9.787 1.9h7.136c.615 0 1.113-.498 1.113-1.113V9.638c0-.988-1.2-1.488-1.9-.787l-.507.506-1.574-1.574L19 2.688l5.095 5.095-1.574 1.574z"/></symbol><symbol viewBox="0 0 43.83 68" id="perfectFit" xmlns="http://www.w3.org/2000/svg"><path d="M41.836 60.031h-5.977v-4.25h2.663a1.992 1.992 0 100-3.984H35.86v-3.984h5.32a1.992 1.992 0 000-3.985h-5.32v-3.984h2.663a1.992 1.992 0 000-3.985H35.86v-3.984h5.32a1.992 1.992 0 000-3.984h-5.32v-3.985h2.663a1.992 1.992 0 100-3.984H35.86v-3.985h5.32a1.992 1.992 0 000-3.984h-5.32V7.97h2.663a1.992 1.992 0 000-3.985H35.86V1.992a1.992 1.992 0 00-3.984 0v58.04h-7.193L25.778 42.5h.127c1.1 0 1.992-.892 1.992-1.992V27.223c0-4.422-2.899-8.179-6.896-9.474a5.978 5.978 0 002.918-5.132 5.983 5.983 0 00-5.976-5.976 5.983 5.983 0 00-5.977 5.976 5.979 5.979 0 002.916 5.13c-3.999 1.294-6.9 5.052-6.9 9.476v13.285c0 1.1.892 1.992 1.992 1.992h.12l1.097 17.531H1.992c-1.1 0-1.992.892-1.992 1.992v3.985a1.992 1.992 0 003.984 0v-1.992h35.86v1.992a1.992 1.992 0 103.984 0v-3.985c0-1.1-.892-1.992-1.992-1.992zM17.943 10.625c1.098 0 1.992.894 1.992 1.992a1.994 1.994 0 01-1.992 1.992 1.994 1.994 0 01-1.992-1.992c0-1.098.893-1.992 1.992-1.992zm-5.977 16.598a5.98 5.98 0 015.974-5.973 5.98 5.98 0 015.973 5.973v11.293H11.966V27.223zm2.12 15.277h7.7L20.69 60.031h-5.507L14.087 42.5z"/></symbol><symbol viewBox="0 0 12.9 13.78" id="phone" xmlns="http://www.w3.org/2000/svg"><path d="M12.669 13.155c-.235.5-.704.751-1.173 1.002-.587.376-1.056.501-1.642.501-.821 0-1.643-.376-2.346-.626-.587-.251-1.056-.502-1.643-.752-1.642-1.128-3.519-3.133-4.457-4.761a11.785 11.785 0 01-.821-1.755C.352 5.887 0 5.136 0 4.134c0-.627.117-1.254.47-1.88.234-.501.468-1.002.938-1.253.352 0 .938-.125 1.29-.125h.235c.234.125.352.5.469.751.234.627.586 1.128.821 1.755.235.25.47.5.47.751 0 .627-1.643 1.504-1.643 2.005 0 .25.235.626.352.877.938 1.754 2.111 3.007 3.754 4.01.234.125.586.375.82.375.47 0 1.291-1.754 1.878-1.754.234 0 .469.25.704.501.469.376 1.055.627 1.524 1.003.235.125.587.25.704.501v.25c.118.251 0 .878-.117 1.254z"/></symbol><symbol viewBox="0 0 64 64" id="strong" xmlns="http://www.w3.org/2000/svg"><path d="M33.875 30.181V19.817h4.15c9.893 0 17.942-8.049 17.942-17.942C55.967.84 55.127 0 54.092 0h-6.027C41.037 0 34.94 4.063 32 9.962 29.058 4.062 22.962 0 15.933 0H9.908C8.873 0 8.033.84 8.033 1.875c0 9.893 8.049 17.942 17.942 17.942h4.15V30.18C13.325 31.152 0 45.081 0 62.125 0 63.16.84 64 1.875 64h60.25C63.16 64 64 63.16 64 62.125c0-17.044-13.325-30.973-30.125-31.944zM48.065 3.75h4.028c-.92 6.942-6.879 12.317-14.068 12.317h-4.027c.92-6.943 6.877-12.317 14.067-12.317zm-22.09 12.317c-7.19 0-13.148-5.375-14.068-12.317h4.026c7.19 0 13.148 5.375 14.069 12.317h-4.027zM3.81 60.25c.929-14.33 11.435-22.005 18.282-24.584v4.712c0 .572-.223 1.11-.628 1.515l-6.025 6.025a5.898 5.898 0 000 8.33l4.001 4.002H3.81zm20.933 0l-6.652-6.653a2.14 2.14 0 010-3.028l6.025-6.025a5.853 5.853 0 001.726-4.166v-5.83A28.366 28.366 0 0132 33.876c4.914 0 9.677 1.259 13.906 3.659L35.522 47.918a5.888 5.888 0 000 8.33l4.001 4.002h-14.78zm20.084 0l-6.653-6.653a2.14 2.14 0 010-3.028L49.1 39.643A28.253 28.253 0 0160.188 60.25H44.827z"/></symbol><symbol viewBox="0 0 20 16.74" id="tw" xmlns="http://www.w3.org/2000/svg"><g clip-path="url(#tclip0_2_1219)"><path d="M19.455 2.016c-.817.49-1.69.818-2.616 1.036a4.032 4.032 0 00-2.997-1.308c-2.289 0-4.087 1.907-4.087 4.196 0 .327.054.654.109.98-3.433-.217-6.43-1.907-8.447-4.468a4.555 4.555 0 00-.545 2.125c0 1.472.708 2.725 1.853 3.488-.654 0-1.308-.218-1.853-.545v.11c0 2.016 1.417 3.76 3.27 4.14a3.514 3.514 0 01-1.09.164c-.273 0-.545 0-.763-.054.545 1.69 2.016 2.888 3.815 2.943A8.03 8.03 0 01.98 16.62c-.327 0-.654 0-.981-.054a11.33 11.33 0 006.267 1.907c7.575 0 11.662-6.43 11.662-11.99V5.94c.818-.6 1.526-1.308 2.071-2.18-.708.327-1.526.545-2.343.654.817-.6 1.471-1.417 1.798-2.398z"/></g><defs><clipPath id="tclip0_2_1219"><path d="M0 0h20v20H0z"/></clipPath></defs></symbol><symbol viewBox="0 0 68.28 68" id="unique" xmlns="http://www.w3.org/2000/svg"><path d="M67.58 64.784c-.105-.135-2.63-3.336-7.98-6.493-2.61-1.541-6.209-3.24-10.814-4.482a69.333 69.333 0 002.564-13.706c.541-6.407.157-12.667-1.142-18.607-1.629-7.443-4.704-14.392-9.14-20.655a1.992 1.992 0 00-3.251 0 57.452 57.452 0 00-3.787 6.122A57.406 57.406 0 0030.243.84a1.992 1.992 0 00-3.251 0c-4.437 6.262-7.512 13.212-9.14 20.655-1.3 5.94-1.684 12.2-1.143 18.607a69.254 69.254 0 002.646 13.981c-4.245 1.204-7.67 2.76-10.234 4.18C3.467 61.392.623 64.55.504 64.682A1.992 1.992 0 001.992 68h64.016a1.992 1.992 0 001.572-3.216zM20.963 26.958l13.363-9.08a52.198 52.198 0 011.046 3.84L20.53 31.804c.073-1.56.212-3.18.433-4.846zm1.01-5.504a52.327 52.327 0 016.646-15.88 52.556 52.556 0 014.322 8.428l-10.967 7.452zm-1.477 15.19L36.18 25.987c.645 4.373.776 8.924.388 13.64a65.613 65.613 0 01-2.244 12.389 57.109 57.109 0 00-11.085 1.126 65.327 65.327 0 01-2.558-13.375 61.201 61.201 0 01-.184-3.123zm14.177 19.353c10.801 0 18.316 3.054 22.718 5.617a33.152 33.152 0 013.58 2.402H7.435c4.744-3.346 13.779-8.019 27.24-8.019zm4.771-50.423c6.314 9.995 8.986 21.436 7.947 34.053a65.47 65.47 0 01-2.508 13.298 54.31 54.31 0 00-6.45-.792 69.732 69.732 0 002.092-12.03c.541-6.407.157-12.667-1.142-18.607a56.366 56.366 0 00-3.169-9.964 52.205 52.205 0 013.23-5.958z"/></symbol><symbol viewBox="0 0 20.16 11.39" id="vk" xmlns="http://www.w3.org/2000/svg"><g clip-path="url(#vclip0_2_1228)"><path d="M19.891 14.605c0-.055-.054-.11-.054-.11-.328-.598-1.036-1.416-2.017-2.288-.436-.436-.708-.708-.817-.872-.218-.272-.273-.545-.164-.817.11-.218.382-.654.927-1.363.272-.381.49-.654.654-.872 1.198-1.58 1.743-2.615 1.58-3.051l-.055-.11c-.054-.163-.163-.217-.326-.272-.164-.054-.382-.054-.654 0h-3.216c-.109 0-.109.055-.109.055h-.054l-.055.054c-.054 0-.054.055-.109.11-.054.054-.054.108-.109.163a23.35 23.35 0 01-1.09 2.343c-.272.436-.49.817-.708 1.144-.218.327-.382.545-.545.709l-.381.381c-.11.11-.218.11-.273.11-.054 0-.109-.055-.163-.055-.11-.055-.164-.164-.218-.273-.055-.109-.11-.218-.11-.381 0-.164-.054-.327-.054-.436V5.667c0-.217 0-.38-.054-.49 0-.109-.055-.218-.11-.327-.054-.109-.108-.218-.217-.272l-.327-.164c-.382-.109-.818-.109-1.417-.109-1.308 0-2.126.055-2.507.273-.164.054-.273.163-.382.327-.108.163-.163.218-.054.272.436.055.708.218.872.436l.054.11c.055.108.11.272.164.49.054.218.054.49.109.762.054.49.054.927 0 1.308-.055.382-.055.654-.11.818-.054.218-.054.381-.163.49l-.109.218c0 .055-.054.055-.054.055-.109.054-.164.054-.273.054-.109 0-.218-.054-.327-.163a2.755 2.755 0 01-.435-.382 2.641 2.641 0 01-.49-.708c-.164-.327-.382-.654-.6-1.09l-.164-.327c-.109-.218-.272-.49-.436-.872-.163-.381-.327-.708-.49-1.09-.055-.109-.164-.218-.273-.327h-.054c-.055-.054-.11-.054-.164-.109-.054 0-.163-.054-.218-.054H.708c-.327 0-.545.109-.654.218v.054C0 5.123 0 5.178 0 5.232c0 .054 0 .163.054.272.436.981.872 1.907 1.363 2.834.49.926.926 1.635 1.253 2.18.382.545.709 1.09 1.09 1.58.382.49.6.817.763.926.11.164.218.219.273.328l.272.272c.164.163.436.381.709.6.327.217.654.435 1.09.708.381.218.871.436 1.362.545.545.163 1.035.218 1.526.163h1.199a.832.832 0 00.545-.218l.054-.054c.055-.055.055-.11.055-.218 0-.11.054-.164.054-.273 0-.272 0-.545.055-.817.054-.218.109-.436.163-.545.055-.109.164-.218.218-.327.11-.109.164-.109.164-.164.054 0 .054-.054.109-.054.163-.055.381 0 .599.163.218.164.436.382.654.6.218.218.436.49.708.817.273.273.545.545.709.654l.218.11c.163.108.327.163.545.217.218.055.436.11.6.055l2.67-.055c.272 0 .49-.054.599-.109.164-.109.218-.163.273-.272.054-.11.054-.218 0-.382 0 0 0-.109-.055-.163z"/></g><defs><clipPath id="vclip0_2_1228"><path d="M0 0h20v20H0z"/></clipPath></defs></symbol></svg>